<mxfile host="app.diagrams.net" modified="2021-10-18T19:08:37.435Z" agent="5.0 (iPad; CPU OS 15_0 like Mac OS X) AppleWebKit/605.1.15 (KHTML, like Gecko) CriOS/94.0.4606.52 Mobile/15E148 Safari/604.1" etag="V4D09IP0LK6OV2DYLjRG" version="15.4.1" type="github">
  <diagram id="uaHTxC-ySIg1MWi0-lsI" name="Page-1">
    <mxGraphModel dx="845" dy="1215" grid="1" gridSize="10" guides="1" tooltips="1" connect="1" arrows="1" fold="1" page="1" pageScale="1" pageWidth="827" pageHeight="1169" math="0" shadow="0">
      <root>
        <mxCell id="0" />
        <mxCell id="1" parent="0" />
        <mxCell id="di2XAjyQTA1PsKkKIKUL-27" value="" style="strokeWidth=1;shadow=0;dashed=0;align=center;html=1;shape=mxgraph.mockup.containers.browserWindow;rSize=0;strokeColor=#666666;strokeColor2=#008cff;strokeColor3=#c4c4c4;mainText=,;recursiveResize=0;" vertex="1" parent="1">
          <mxGeometry x="13" y="10" width="800" height="1120" as="geometry" />
        </mxCell>
        <mxCell id="di2XAjyQTA1PsKkKIKUL-28" value="Page 1" style="strokeWidth=1;shadow=0;dashed=0;align=center;html=1;shape=mxgraph.mockup.containers.anchor;fontSize=17;fontColor=#666666;align=left;" vertex="1" parent="di2XAjyQTA1PsKkKIKUL-27">
          <mxGeometry x="60" y="12" width="110" height="26" as="geometry" />
        </mxCell>
        <mxCell id="di2XAjyQTA1PsKkKIKUL-29" value="Script aggiornamento dati" style="strokeWidth=1;shadow=0;dashed=0;align=center;html=1;shape=mxgraph.mockup.containers.anchor;rSize=0;fontSize=17;fontColor=#666666;align=left;" vertex="1" parent="di2XAjyQTA1PsKkKIKUL-27">
          <mxGeometry x="130" y="60" width="250" height="26" as="geometry" />
        </mxCell>
        <mxCell id="di2XAjyQTA1PsKkKIKUL-52" value="Campionato" style="html=1;shadow=0;dashed=0;shape=mxgraph.bootstrap.rrect;rSize=5;strokeColor=none;strokeWidth=1;fillColor=#6C767D;fontColor=#ffffff;whiteSpace=wrap;align=right;verticalAlign=middle;fontStyle=0;fontSize=14;spacingRight=20;" vertex="1" parent="di2XAjyQTA1PsKkKIKUL-27">
          <mxGeometry x="45" y="140" width="140" height="40" as="geometry" />
        </mxCell>
        <mxCell id="di2XAjyQTA1PsKkKIKUL-53" value="" style="shape=triangle;direction=south;fillColor=#ffffff;strokeColor=none;perimeter=none;" vertex="1" parent="di2XAjyQTA1PsKkKIKUL-52">
          <mxGeometry x="1" y="0.5" width="10" height="5" relative="1" as="geometry">
            <mxPoint x="-17" y="-2.5" as="offset" />
          </mxGeometry>
        </mxCell>
        <mxCell id="di2XAjyQTA1PsKkKIKUL-54" value="Giornata" style="html=1;shadow=0;dashed=0;shape=mxgraph.bootstrap.rrect;rSize=5;strokeColor=none;strokeWidth=1;fillColor=#6C767D;fontColor=#ffffff;whiteSpace=wrap;align=right;verticalAlign=middle;fontStyle=0;fontSize=14;spacingRight=20;" vertex="1" parent="di2XAjyQTA1PsKkKIKUL-27">
          <mxGeometry x="220" y="140" width="140" height="40" as="geometry" />
        </mxCell>
        <mxCell id="di2XAjyQTA1PsKkKIKUL-55" value="" style="shape=triangle;direction=south;fillColor=#ffffff;strokeColor=none;perimeter=none;" vertex="1" parent="di2XAjyQTA1PsKkKIKUL-54">
          <mxGeometry x="1" y="0.5" width="10" height="5" relative="1" as="geometry">
            <mxPoint x="-17" y="-2.5" as="offset" />
          </mxGeometry>
        </mxCell>
        <mxCell id="di2XAjyQTA1PsKkKIKUL-70" value="Match" style="shape=table;startSize=30;container=1;collapsible=0;childLayout=tableLayout;fontStyle=1;align=center;pointerEvents=1;" vertex="1" parent="di2XAjyQTA1PsKkKIKUL-27">
          <mxGeometry x="45" y="210" width="605" height="170" as="geometry" />
        </mxCell>
        <mxCell id="di2XAjyQTA1PsKkKIKUL-71" value="" style="shape=partialRectangle;html=1;whiteSpace=wrap;collapsible=0;dropTarget=0;pointerEvents=0;fillColor=none;top=0;left=0;bottom=0;right=0;points=[[0,0.5],[1,0.5]];portConstraint=eastwest;" vertex="1" parent="di2XAjyQTA1PsKkKIKUL-70">
          <mxGeometry y="30" width="605" height="70" as="geometry" />
        </mxCell>
        <mxCell id="di2XAjyQTA1PsKkKIKUL-72" value="&lt;font style=&quot;font-size: 18px&quot;&gt;Team 1&lt;/font&gt;" style="shape=partialRectangle;html=1;whiteSpace=wrap;connectable=0;fillColor=none;top=0;left=0;bottom=0;right=0;overflow=hidden;pointerEvents=1;" vertex="1" parent="di2XAjyQTA1PsKkKIKUL-71">
          <mxGeometry width="115" height="70" as="geometry">
            <mxRectangle width="115" height="70" as="alternateBounds" />
          </mxGeometry>
        </mxCell>
        <mxCell id="di2XAjyQTA1PsKkKIKUL-73" value="&lt;font style=&quot;font-size: 18px&quot;&gt;Team 2&lt;/font&gt;" style="shape=partialRectangle;html=1;whiteSpace=wrap;connectable=0;fillColor=none;top=0;left=0;bottom=0;right=0;overflow=hidden;pointerEvents=1;" vertex="1" parent="di2XAjyQTA1PsKkKIKUL-71">
          <mxGeometry x="115" width="110" height="70" as="geometry">
            <mxRectangle width="110" height="70" as="alternateBounds" />
          </mxGeometry>
        </mxCell>
        <mxCell id="di2XAjyQTA1PsKkKIKUL-74" value="" style="shape=partialRectangle;html=1;whiteSpace=wrap;connectable=0;fillColor=none;top=0;left=0;bottom=0;right=0;overflow=hidden;pointerEvents=1;" vertex="1" parent="di2XAjyQTA1PsKkKIKUL-71">
          <mxGeometry x="225" width="120" height="70" as="geometry">
            <mxRectangle width="120" height="70" as="alternateBounds" />
          </mxGeometry>
        </mxCell>
        <mxCell id="di2XAjyQTA1PsKkKIKUL-83" style="shape=partialRectangle;html=1;whiteSpace=wrap;connectable=0;fillColor=none;top=0;left=0;bottom=0;right=0;overflow=hidden;pointerEvents=1;" vertex="1" parent="di2XAjyQTA1PsKkKIKUL-71">
          <mxGeometry x="345" width="130" height="70" as="geometry">
            <mxRectangle width="130" height="70" as="alternateBounds" />
          </mxGeometry>
        </mxCell>
        <mxCell id="di2XAjyQTA1PsKkKIKUL-103" style="shape=partialRectangle;html=1;whiteSpace=wrap;connectable=0;fillColor=none;top=0;left=0;bottom=0;right=0;overflow=hidden;pointerEvents=1;" vertex="1" parent="di2XAjyQTA1PsKkKIKUL-71">
          <mxGeometry x="475" width="130" height="70" as="geometry">
            <mxRectangle width="130" height="70" as="alternateBounds" />
          </mxGeometry>
        </mxCell>
        <mxCell id="di2XAjyQTA1PsKkKIKUL-75" value="" style="shape=partialRectangle;html=1;whiteSpace=wrap;collapsible=0;dropTarget=0;pointerEvents=0;fillColor=none;top=0;left=0;bottom=0;right=0;points=[[0,0.5],[1,0.5]];portConstraint=eastwest;" vertex="1" parent="di2XAjyQTA1PsKkKIKUL-70">
          <mxGeometry y="100" width="605" height="70" as="geometry" />
        </mxCell>
        <mxCell id="di2XAjyQTA1PsKkKIKUL-76" value="" style="shape=partialRectangle;html=1;whiteSpace=wrap;connectable=0;fillColor=none;top=0;left=0;bottom=0;right=0;overflow=hidden;pointerEvents=1;" vertex="1" parent="di2XAjyQTA1PsKkKIKUL-75">
          <mxGeometry width="115" height="70" as="geometry">
            <mxRectangle width="115" height="70" as="alternateBounds" />
          </mxGeometry>
        </mxCell>
        <mxCell id="di2XAjyQTA1PsKkKIKUL-77" value="" style="shape=partialRectangle;html=1;whiteSpace=wrap;connectable=0;fillColor=none;top=0;left=0;bottom=0;right=0;overflow=hidden;pointerEvents=1;" vertex="1" parent="di2XAjyQTA1PsKkKIKUL-75">
          <mxGeometry x="115" width="110" height="70" as="geometry">
            <mxRectangle width="110" height="70" as="alternateBounds" />
          </mxGeometry>
        </mxCell>
        <mxCell id="di2XAjyQTA1PsKkKIKUL-78" value="" style="shape=partialRectangle;html=1;whiteSpace=wrap;connectable=0;fillColor=none;top=0;left=0;bottom=0;right=0;overflow=hidden;pointerEvents=1;" vertex="1" parent="di2XAjyQTA1PsKkKIKUL-75">
          <mxGeometry x="225" width="120" height="70" as="geometry">
            <mxRectangle width="120" height="70" as="alternateBounds" />
          </mxGeometry>
        </mxCell>
        <mxCell id="di2XAjyQTA1PsKkKIKUL-84" style="shape=partialRectangle;html=1;whiteSpace=wrap;connectable=0;fillColor=none;top=0;left=0;bottom=0;right=0;overflow=hidden;pointerEvents=1;" vertex="1" parent="di2XAjyQTA1PsKkKIKUL-75">
          <mxGeometry x="345" width="130" height="70" as="geometry">
            <mxRectangle width="130" height="70" as="alternateBounds" />
          </mxGeometry>
        </mxCell>
        <mxCell id="di2XAjyQTA1PsKkKIKUL-104" style="shape=partialRectangle;html=1;whiteSpace=wrap;connectable=0;fillColor=none;top=0;left=0;bottom=0;right=0;overflow=hidden;pointerEvents=1;" vertex="1" parent="di2XAjyQTA1PsKkKIKUL-75">
          <mxGeometry x="475" width="130" height="70" as="geometry">
            <mxRectangle width="130" height="70" as="alternateBounds" />
          </mxGeometry>
        </mxCell>
        <mxCell id="di2XAjyQTA1PsKkKIKUL-86" value="" style="strokeWidth=1;shadow=0;dashed=0;align=center;html=1;shape=mxgraph.mockup.forms.spinner;strokeColor=#999999;spinLayout=right;spinStyle=normal;adjStyle=triangle;fillColor=#aaddff;fontSize=17;fontColor=#666666;mainText=;html=1;overflow=fill;" vertex="1" parent="di2XAjyQTA1PsKkKIKUL-27">
          <mxGeometry x="287" y="250" width="80" height="50" as="geometry" />
        </mxCell>
        <mxCell id="di2XAjyQTA1PsKkKIKUL-87" value="" style="strokeWidth=1;shadow=0;dashed=0;align=center;html=1;shape=mxgraph.mockup.forms.spinner;strokeColor=#999999;spinLayout=right;spinStyle=normal;adjStyle=triangle;fillColor=#aaddff;fontSize=17;fontColor=#666666;mainText=;html=1;overflow=fill;" vertex="1" parent="di2XAjyQTA1PsKkKIKUL-27">
          <mxGeometry x="400" y="250" width="70" height="50" as="geometry" />
        </mxCell>
        <mxCell id="di2XAjyQTA1PsKkKIKUL-102" value="Calcola" style="strokeWidth=1;shadow=0;dashed=0;align=center;html=1;shape=mxgraph.mockup.buttons.button;strokeColor=#666666;fontColor=#ffffff;mainText=;buttonStyle=round;fontSize=17;fontStyle=1;fillColor=#008cff;whiteSpace=wrap;" vertex="1" parent="di2XAjyQTA1PsKkKIKUL-27">
          <mxGeometry x="45" y="420" width="150" height="50" as="geometry" />
        </mxCell>
        <mxCell id="di2XAjyQTA1PsKkKIKUL-108" value="Calcola" style="strokeWidth=1;shadow=0;dashed=0;align=center;html=1;shape=mxgraph.mockup.forms.rrect;rSize=0;fillColor=#eeeeee;strokeColor=#999999;gradientColor=#cccccc;align=left;spacingLeft=4;fontSize=17;fontColor=#666666;labelPosition=right;" vertex="1" parent="di2XAjyQTA1PsKkKIKUL-27">
          <mxGeometry x="527" y="267.5" width="15" height="15" as="geometry" />
        </mxCell>
        <mxCell id="di2XAjyQTA1PsKkKIKUL-115" value="Selezioneremo il campionato è la giornata da calcolare, l’elenco mostrerà soltanto le partite che non sono state già calcolate.&lt;br&gt;Inseriamo il numero di gol nell’apposito input text e spuntiamo la casella di controllo per far calcolare il risultato all’algoritmo.&lt;br&gt;Quando clicchiamo sul bottone calcola, eseguirà il seguente algoritmo:&lt;br&gt;1- aggiornerà la collection MATCH&amp;nbsp;" style="rounded=0;whiteSpace=wrap;html=1;fontSize=18;fillColor=#FFFFCC;align=left;" vertex="1" parent="di2XAjyQTA1PsKkKIKUL-27">
          <mxGeometry x="27" y="495" width="570" height="365" as="geometry" />
        </mxCell>
      </root>
    </mxGraphModel>
  </diagram>
</mxfile>
